<svg width="21" height="17" viewBox="0 0 21 17" fill="none" xmlns="http://www.w3.org/2000/svg">
<path d="M20.25 6.84375C20.25 6.38672 19.8633 6 19.4062 6H17.0156L13.2539 0.867188C12.9023 0.339844 12.1992 0.234375 11.707 0.621094C11.1797 0.972656 11.0742 1.67578 11.4609 2.16797L14.2383 6H5.97656L8.75391 2.16797C9.14062 1.67578 9.03516 0.972656 8.50781 0.621094C8.01562 0.234375 7.3125 0.339844 6.96094 0.867188L3.19922 6H0.84375C0.351562 6 0 6.38672 0 6.84375V7.40625C0 7.89844 0.351562 8.25 0.84375 8.25H1.125L2.03906 14.6836C2.14453 15.5273 2.84766 16.125 3.69141 16.125H16.5234C17.3672 16.125 18.0703 15.5273 18.1758 14.6836L19.125 8.25H19.4062C19.8633 8.25 20.25 7.89844 20.25 7.40625V6.84375ZM10.9688 13.0312C10.9688 13.5234 10.582 13.875 10.125 13.875C9.63281 13.875 9.28125 13.5234 9.28125 13.0312V9.09375C9.28125 8.63672 9.63281 8.25 10.125 8.25C10.582 8.25 10.9688 8.63672 10.9688 9.09375V13.0312ZM14.9062 13.0312C14.9062 13.5234 14.5195 13.875 14.0625 13.875C13.5703 13.875 13.2188 13.5234 13.2188 13.0312V9.09375C13.2188 8.63672 13.5703 8.25 14.0625 8.25C14.5195 8.25 14.9062 8.63672 14.9062 9.09375V13.0312ZM7.03125 13.0312C7.03125 13.5234 6.64453 13.875 6.1875 13.875C5.69531 13.875 5.34375 13.5234 5.34375 13.0312V9.09375C5.34375 8.63672 5.69531 8.25 6.1875 8.25C6.64453 8.25 7.03125 8.63672 7.03125 9.09375V13.0312Z" fill="#4B4B4B"/>
</svg>
